<svg width="50" height="50" viewBox="0 0 50 50" fill="none" xmlns="http://www.w3.org/2000/svg">
<path d="M39.5834 29.1666V12.4999C39.5834 10.2083 37.7084 8.33325 35.4167 8.33325H6.25004C3.95837 8.33325 2.08337 10.2083 2.08337 12.4999V29.1666C2.08337 31.4583 3.95837 33.3333 6.25004 33.3333H35.4167C37.7084 33.3333 39.5834 31.4583 39.5834 29.1666ZM20.8334 27.0833C17.375 27.0833 14.5834 24.2916 14.5834 20.8333C14.5834 17.3749 17.375 14.5833 20.8334 14.5833C24.2917 14.5833 27.0834 17.3749 27.0834 20.8333C27.0834 24.2916 24.2917 27.0833 20.8334 27.0833ZM47.9167 14.5833V37.4999C47.9167 39.7916 46.0417 41.6666 43.75 41.6666H8.33337V37.4999H43.75V14.5833H47.9167Z" fill="white"/>
</svg>
