<svg width="20" height="20" viewBox="0 0 20 20" fill="none" xmlns="http://www.w3.org/2000/svg">
<path fill-rule="evenodd" clip-rule="evenodd" d="M6.25 3C6.25 2.9337 6.27634 2.87011 6.32322 2.82322C6.37011 2.77634 6.4337 2.75 6.5 2.75H13.5C13.5663 2.75 13.6299 2.77634 13.6768 2.82322C13.7237 2.87011 13.75 2.9337 13.75 3V15C13.75 15.0663 13.7237 15.1299 13.6768 15.1768C13.6299 15.2237 13.5663 15.25 13.5 15.25H6.5C6.4337 15.25 6.37011 15.2237 6.32322 15.1768C6.27634 15.1299 6.25 15.0663 6.25 15V3Z" fill="white"/>
<path fill-rule="evenodd" clip-rule="evenodd" d="M14.5 0H5.5C4.395 0 3.5 0.943 3.5 2.105V17.895C3.5 19.057 4.395 20 5.5 20H14.5C15.605 20 16.5 19.057 16.5 17.895V2.105C16.5 0.943 15.605 0 14.5 0ZM5.5 18V2H14.5V18H5.5Z" fill="white"/>
<path d="M10.5 16.5C10.5 16.6326 10.4473 16.7598 10.3536 16.8536C10.2598 16.9473 10.1326 17 10 17C9.86739 17 9.74021 16.9473 9.64645 16.8536C9.55268 16.7598 9.5 16.6326 9.5 16.5C9.5 16.3674 9.55268 16.2402 9.64645 16.1464C9.74021 16.0527 9.86739 16 10 16C10.1326 16 10.2598 16.0527 10.3536 16.1464C10.4473 16.2402 10.5 16.3674 10.5 16.5Z" fill="white"/>
<path fill-rule="evenodd" clip-rule="evenodd" d="M9 16.5C9 16.2348 9.10536 15.9804 9.29289 15.7929C9.48043 15.6054 9.73478 15.5 10 15.5C10.2652 15.5 10.5196 15.6054 10.7071 15.7929C10.8946 15.9804 11 16.2348 11 16.5C11 16.7652 10.8946 17.0196 10.7071 17.2071C10.5196 17.3946 10.2652 17.5 10 17.5C9.73478 17.5 9.48043 17.3946 9.29289 17.2071C9.10536 17.0196 9 16.7652 9 16.5Z" fill="white"/>
</svg>
