<svg width="20" height="20" viewBox="0 0 20 20" fill="none" xmlns="http://www.w3.org/2000/svg">
<path d="M15.8525 14.1475C15.4622 13.7736 15.0824 13.389 14.7134 12.9942C14.4034 12.6792 14.2167 12.45 14.2167 12.45L11.8834 11.3358C12.8175 10.2764 13.3331 8.91249 13.3334 7.5C13.3334 4.28416 10.7167 1.66666 7.50002 1.66666C4.28335 1.66666 1.66669 4.28416 1.66669 7.5C1.66669 10.7158 4.28335 13.3333 7.50002 13.3333C8.96919 13.3333 10.3084 12.7833 11.3359 11.8842L12.45 14.2175C12.45 14.2175 12.6792 14.4042 12.9942 14.7142C13.3167 15.0167 13.7409 15.4258 14.1475 15.8533L15.2792 17.0133L15.7825 17.5517L17.55 15.7842L17.0117 15.2808C16.6959 14.9708 16.2742 14.5592 15.8525 14.1475ZM7.50002 11.6667C5.20252 11.6667 3.33335 9.7975 3.33335 7.5C3.33335 5.2025 5.20252 3.33333 7.50002 3.33333C9.79752 3.33333 11.6667 5.2025 11.6667 7.5C11.6667 9.7975 9.79752 11.6667 7.50002 11.6667Z" fill="#333333" fill-opacity="0.5"/>
</svg>
