<svg width="50" height="50" viewBox="0 0 50 50" fill="none" xmlns="http://www.w3.org/2000/svg">
<path d="M37.5 38.5416C39.2292 38.5416 40.625 37.1458 40.625 35.4166C40.625 33.6874 39.2292 32.2916 37.5 32.2916C35.7708 32.2916 34.375 33.6874 34.375 35.4166C34.375 37.1458 35.7708 38.5416 37.5 38.5416ZM40.625 19.7916H35.4167V24.9999H44.7083L40.625 19.7916ZM12.5 38.5416C14.2292 38.5416 15.625 37.1458 15.625 35.4166C15.625 33.6874 14.2292 32.2916 12.5 32.2916C10.7708 32.2916 9.375 33.6874 9.375 35.4166C9.375 37.1458 10.7708 38.5416 12.5 38.5416ZM41.6667 16.6666L47.9167 24.9999V35.4166H43.75C43.75 38.8749 40.9583 41.6666 37.5 41.6666C34.0417 41.6666 31.25 38.8749 31.25 35.4166H18.75C18.75 38.8749 15.9583 41.6666 12.5 41.6666C9.04167 41.6666 6.25 38.8749 6.25 35.4166H2.08334V12.4999C2.08334 10.1874 3.9375 8.33325 6.25 8.33325H35.4167V16.6666H41.6667ZM6.25 12.4999V31.2499H7.83334C8.97917 29.9791 10.6458 29.1666 12.5 29.1666C14.3542 29.1666 16.0208 29.9791 17.1667 31.2499H31.25V12.4999H6.25Z" fill="white"/>
</svg>
