<svg width="30" height="30" viewBox="0 0 30 30" fill="none" xmlns="http://www.w3.org/2000/svg">
<path d="M28 14.5C28 7.59896 22.401 2 15.5 2C8.59896 2 3 7.59896 3 14.5C3 21.401 8.59896 27 15.5 27C22.401 27 28 21.401 28 14.5Z" stroke="white" stroke-width="1.875" stroke-miterlimit="10"/>
<path d="M12.8989 19.3971C12.1841 19.3971 11.6058 19.982 11.6058 20.6968C11.6058 21.4116 12.1841 21.9964 12.8989 21.9964C13.6137 21.9964 14.1986 21.4116 14.1986 20.6968C14.1986 19.982 13.6137 19.3971 12.8989 19.3971ZM9 9.64982C9 10.0072 9.29242 10.2996 9.64982 10.2996H10.2996L12.639 15.2318L11.7617 16.8173C11.2874 17.6881 11.9112 18.7473 12.8989 18.7473H20.047C20.4044 18.7473 20.6968 18.4549 20.6968 18.0975C20.6968 17.7401 20.4044 17.4477 20.047 17.4477H12.8989L13.6137 16.148H18.4549C18.9423 16.148 19.3711 15.8816 19.5921 15.4787L21.9184 11.2614C21.9732 11.1629 22.0013 11.0518 22 10.9391C21.9986 10.8264 21.9678 10.716 21.9107 10.6189C21.8536 10.5217 21.7721 10.4412 21.6743 10.3852C21.5765 10.3292 21.4658 10.2997 21.3531 10.2996H11.7357L11.3004 9.3704C11.2481 9.25948 11.1654 9.16573 11.0618 9.10013C10.9582 9.03454 10.8381 8.9998 10.7155 9H9.64982C9.29242 9 9 9.29242 9 9.64982ZM19.3971 19.3971C18.6823 19.3971 18.104 19.982 18.104 20.6968C18.104 21.4116 18.6823 21.9964 19.3971 21.9964C20.1119 21.9964 20.6968 21.4116 20.6968 20.6968C20.6968 19.982 20.1119 19.3971 19.3971 19.3971Z" fill="white"/>
</svg>
