<svg width="30" height="30" viewBox="0 0 30 30" fill="none" xmlns="http://www.w3.org/2000/svg">
<path d="M28 14.5C28 7.59896 22.401 2 15.5 2C8.59896 2 3 7.59896 3 14.5C3 21.401 8.59896 27 15.5 27C22.401 27 28 21.401 28 14.5Z" stroke="white" stroke-width="1.875" stroke-miterlimit="10"/>
<path d="M15.5006 21.0017C15.2999 21.0016 15.1039 20.941 14.9381 20.828C12.4818 19.1604 11.418 18.0153 10.8317 17.3022C9.58165 15.779 8.98287 14.2146 9.00037 12.5208C9.01975 10.5794 10.5767 9 12.4711 9C13.7462 9 14.6587 9.6644 15.2275 10.2757C15.2625 10.3127 15.3048 10.3423 15.3516 10.3625C15.3985 10.3826 15.449 10.3931 15.5 10.3931C15.551 10.3931 15.6015 10.3826 15.6484 10.3625C15.6952 10.3423 15.7375 10.3127 15.7725 10.2757C16.3419 9.6644 17.2538 9 18.5289 9C20.4233 9 21.9803 10.5794 21.9996 12.5208C22.0171 14.2146 21.4177 15.779 20.1683 17.3022C19.582 18.0172 18.5182 19.1604 16.0619 20.828C15.8964 20.9408 15.7009 21.0013 15.5006 21.0017Z" fill="white"/>
</svg>
