<svg width="14" height="20" viewBox="0 0 14 20" fill="none" xmlns="http://www.w3.org/2000/svg">
<path fill-rule="evenodd" clip-rule="evenodd" d="M3.25 3C3.25 2.9337 3.27634 2.87011 3.32322 2.82322C3.37011 2.77634 3.4337 2.75 3.5 2.75H10.5C10.5663 2.75 10.6299 2.77634 10.6768 2.82322C10.7237 2.87011 10.75 2.9337 10.75 3V15C10.75 15.0663 10.7237 15.1299 10.6768 15.1768C10.6299 15.2237 10.5663 15.25 10.5 15.25H3.5C3.4337 15.25 3.37011 15.2237 3.32322 15.1768C3.27634 15.1299 3.25 15.0663 3.25 15V3Z" fill="white"/>
<path fill-rule="evenodd" clip-rule="evenodd" d="M11.5 0H2.5C1.395 0 0.5 0.943 0.5 2.105V17.895C0.5 19.057 1.395 20 2.5 20H11.5C12.605 20 13.5 19.057 13.5 17.895V2.105C13.5 0.943 12.605 0 11.5 0ZM2.5 18V2H11.5V18H2.5Z" fill="white"/>
<path d="M7.5 16.5C7.5 16.6326 7.44732 16.7598 7.35355 16.8536C7.25979 16.9473 7.13261 17 7 17C6.86739 17 6.74021 16.9473 6.64645 16.8536C6.55268 16.7598 6.5 16.6326 6.5 16.5C6.5 16.3674 6.55268 16.2402 6.64645 16.1464C6.74021 16.0527 6.86739 16 7 16C7.13261 16 7.25979 16.0527 7.35355 16.1464C7.44732 16.2402 7.5 16.3674 7.5 16.5Z" fill="white"/>
<path fill-rule="evenodd" clip-rule="evenodd" d="M6 16.5C6 16.2348 6.10536 15.9804 6.29289 15.7929C6.48043 15.6054 6.73478 15.5 7 15.5C7.26522 15.5 7.51957 15.6054 7.70711 15.7929C7.89464 15.9804 8 16.2348 8 16.5C8 16.7652 7.89464 17.0196 7.70711 17.2071C7.51957 17.3946 7.26522 17.5 7 17.5C6.73478 17.5 6.48043 17.3946 6.29289 17.2071C6.10536 17.0196 6 16.7652 6 16.5Z" fill="white"/>
</svg>
