<svg width="18" height="16" viewBox="0 0 18 16" fill="none" xmlns="http://www.w3.org/2000/svg">
<path d="M1.7325 7.4315C1.70493 7.32096 1.7029 7.2056 1.72657 7.09416C1.75025 6.98272 1.79899 6.87814 1.86911 6.78836C1.93924 6.69857 2.02889 6.62594 2.13127 6.57598C2.23366 6.52602 2.34607 6.50003 2.46 6.5H15.54C15.6539 6.50003 15.7663 6.52602 15.8687 6.57598C15.9711 6.62594 16.0608 6.69857 16.1309 6.78836C16.201 6.87814 16.2498 6.98272 16.2734 7.09416C16.2971 7.2056 16.2951 7.32096 16.2675 7.4315L14.9092 12.8637C14.8281 13.1883 14.6409 13.4763 14.3773 13.6822C14.1136 13.8881 13.7887 13.9999 13.4542 14H4.54575C4.21125 13.9999 3.88638 13.8881 3.62275 13.6822C3.35912 13.4763 3.17186 13.1883 3.09075 12.8637L1.7325 7.43225V7.4315Z" stroke="#333333" stroke-width="2.08333" stroke-linejoin="round"/>
<path d="M6.75 9.5V11" stroke="#333333" stroke-width="2.08333" stroke-linecap="round"/>
<path d="M11.25 9.5V11" stroke="#333333" stroke-width="2.08333" stroke-linecap="round"/>
<path d="M4.5 6.5L7.5 2" stroke="#333333" stroke-width="2.08333" stroke-linecap="round"/>
<path d="M13.5 6.5L10.5 2" stroke="#333333" stroke-width="2.08333" stroke-linecap="round"/>
</svg>
